<svg xmlns="http://www.w3.org/2000/svg" width="284.8470458984375" height="270.6955261230469" viewBox="-36.71833801269531 -40.782474517822266 284.8470458984375 270.6955261230469"><title>Neo4j Graph Visualization</title><desc>Created using Neo4j (http://www.neo4j.com/)</desc><g class="layer relationships"><g class="relationship" transform="translate(138.84417926623084 200.9130582334345) rotate(253.83304521186284)"><path class="outline" fill="#A5ABB6" stroke="none" d="M 25 0.5 L 31.07480750721311 0.5 L 31.07480750721311 -0.5 L 25 -0.5 Z M 76.63730750721311 0.5 L 82.71211501442622 0.5 L 82.71211501442622 3.5 L 89.71211501442622 0 L 82.71211501442622 -3.5 L 82.71211501442622 -0.5 L 76.63730750721311 -0.5 Z"/><text text-anchor="middle" pointer-events="none" font-size="8px" fill="#000000" x="53.85605750721311" y="3" transform="rotate(180 53.85605750721311 0)" font-family="sans-serif">ACTED_IN</text></g><g class="relationship" transform="translate(219.128707585208 112.30215733908656) rotate(190.87725314337865)"><path class="outline" fill="#A5ABB6" stroke="none" d="M 25 0.5 L 30.85764909582575 0.5 L 30.85764909582575 -0.5 L 25 -0.5 Z M 76.42014909582575 0.5 L 82.2777981916515 0.5 L 82.2777981916515 3.5 L 89.2777981916515 0 L 82.2777981916515 -3.5 L 82.2777981916515 -0.5 L 76.42014909582575 -0.5 Z"/><text text-anchor="middle" pointer-events="none" font-size="8px" fill="#000000" x="53.63889909582575" y="3" transform="rotate(180 53.63889909582575 0)" font-family="sans-serif">ACTED_IN</text></g><g class="relationship" transform="translate(176.92577078587976 -0.8310050587236523) rotate(487.40491933989694)"><path class="outline" fill="#A5ABB6" stroke="none" d="M 25 0.5 L 31.355098276894893 0.5 L 31.355098276894893 -0.5 L 25 -0.5 Z M 76.91759827689489 0.5 L 83.27269655378979 0.5 L 83.27269655378979 3.5 L 90.27269655378979 0 L 83.27269655378979 -3.5 L 83.27269655378979 -0.5 L 76.91759827689489 -0.5 Z"/><text text-anchor="middle" pointer-events="none" font-size="8px" fill="#000000" x="54.13634827689489" y="3" transform="rotate(180 54.13634827689489 0)" font-family="sans-serif">ACTED_IN</text></g><g class="relationship" transform="translate(56.414219319873915 -11.782474101687455) rotate(423.78027089802094)"><path class="outline" fill="#A5ABB6" stroke="none" d="M 25 0.5 L 35.752426364890745 0.5 L 35.752426364890745 -0.5 L 25 -0.5 Z M 71.52586386489074 0.5 L 82.27829022978149 0.5 L 82.27829022978149 3.5 L 89.27829022978149 0 L 82.27829022978149 -3.5 L 82.27829022978149 -0.5 L 71.52586386489074 -0.5 Z"/><text text-anchor="middle" pointer-events="none" font-size="8px" fill="#000000" x="53.639145114890745" y="3" font-family="sans-serif">WROTE</text></g><g class="relationship" transform="translate(-7.718339698858888 89.16790747279266) rotate(360.7844355293819)"><path class="outline" fill="#A5ABB6" stroke="none" d="M 25 0.5 L 35.92985167459879 0.5 L 35.92985167459879 -0.5 L 25 -0.5 Z M 71.70328917459878 0.5 L 82.63314084919757 0.5 L 82.63314084919757 3.5 L 89.63314084919757 0 L 82.63314084919757 -3.5 L 82.63314084919757 -0.5 L 71.70328917459878 -0.5 Z"/><text text-anchor="middle" pointer-events="none" font-size="8px" fill="#000000" x="53.81657042459879" y="3" font-family="sans-serif">WROTE</text></g><g class="relationship" transform="translate(36.193958409580084 183.5681041749155) rotate(307.2968662886973)"><path class="outline" fill="#A5ABB6" stroke="none" d="M 25 0.5 L 31.401659513384296 0.5 L 31.401659513384296 -0.5 L 25 -0.5 Z M 78.29228451338429 0.5 L 84.69394402676859 0.5 L 84.69394402676859 3.5 L 91.69394402676859 0 L 84.69394402676859 -3.5 L 84.69394402676859 -0.5 L 78.29228451338429 -0.5 Z"/><text text-anchor="middle" pointer-events="none" font-size="8px" fill="#000000" x="54.846972013384296" y="3" font-family="sans-serif">DIRECTED</text></g></g><g class="layer nodes"><g class="node" transform="translate(138.84417926623084,200.9130582334345)"><circle class="outline" cx="0" cy="0" r="25" fill="#F79767" stroke="#f36924" stroke-width="2px"/><text text-anchor="middle" pointer-events="none" font-family="sans-serif" dy="1.5625" font-size="25" fill="#FFFFFF"/><text text-anchor="middle" pointer-events="none" y="5" font-size="10px" fill="#FFFFFF" font-family="sans-serif"> Sebastian</text></g><g class="node" transform="translate(106.9040577277372,90.73729879793433)"><circle class="outline" cx="0" cy="0" r="25" fill="#57C7E3" stroke="#23b3d7" stroke-width="2px"/><text text-anchor="middle" pointer-events="none" font-family="sans-serif" dy="1.5625" font-size="25" fill="#FFFFFF"/><text text-anchor="middle" pointer-events="none" font-family="sans-serif" dy="1.5625" font-size="25" fill="#FFFFFF"/><text text-anchor="middle" pointer-events="none" font-family="sans-serif" dy="1.5625" font-size="25" fill="#FFFFFF"/><text text-anchor="middle" pointer-events="none" y="-5" font-size="10px" fill="#FFFFFF" font-family="sans-serif"> Captain</text><text text-anchor="middle" pointer-events="none" y="5" font-size="10px" fill="#FFFFFF" font-family="sans-serif"> America:</text><text text-anchor="middle" pointer-events="none" y="15" font-size="10px" fill="#FFFFFF" font-family="sans-serif"> The Fi…</text></g><g class="node" transform="translate(219.128707585208,112.30215733908656)"><circle class="outline" cx="0" cy="0" r="25" fill="#F79767" stroke="#f36924" stroke-width="2px"/><text text-anchor="middle" pointer-events="none" font-family="sans-serif" dy="1.5625" font-size="25" fill="#FFFFFF"/><text text-anchor="middle" pointer-events="none" font-family="sans-serif" dy="1.5625" font-size="25" fill="#FFFFFF"/><text text-anchor="middle" pointer-events="none" y="0" font-size="10px" fill="#FFFFFF" font-family="sans-serif"> Hayley</text><text text-anchor="middle" pointer-events="none" y="10" font-size="10px" fill="#FFFFFF" font-family="sans-serif"> Atwell</text></g><g class="node" transform="translate(176.92577078587976,-0.8310050587236523)"><circle class="outline" cx="0" cy="0" r="25" fill="#F79767" stroke="#f36924" stroke-width="2px"/><text text-anchor="middle" pointer-events="none" font-family="sans-serif" dy="1.5625" font-size="25" fill="#FFFFFF"/><text text-anchor="middle" pointer-events="none" font-family="sans-serif" dy="1.5625" font-size="25" fill="#FFFFFF"/><text text-anchor="middle" pointer-events="none" y="0" font-size="10px" fill="#FFFFFF" font-family="sans-serif"> Chris</text><text text-anchor="middle" pointer-events="none" y="10" font-size="10px" fill="#FFFFFF" font-family="sans-serif"> Evans</text></g><g class="node" transform="translate(56.414219319873915,-11.782474101687455)"><circle class="outline" cx="0" cy="0" r="25" fill="#F79767" stroke="#f36924" stroke-width="2px"/><text text-anchor="middle" pointer-events="none" font-family="sans-serif" dy="1.5625" font-size="25" fill="#FFFFFF"/><text text-anchor="middle" pointer-events="none" font-family="sans-serif" dy="1.5625" font-size="25" fill="#FFFFFF"/><text text-anchor="middle" pointer-events="none" y="0" font-size="10px" fill="#FFFFFF" font-family="sans-serif"> Stephen</text><text text-anchor="middle" pointer-events="none" y="10" font-size="10px" fill="#FFFFFF" font-family="sans-serif"> McFeely</text></g><g class="node" transform="translate(-7.718339698858888,89.16790747279266)"><circle class="outline" cx="0" cy="0" r="25" fill="#F79767" stroke="#f36924" stroke-width="2px"/><text text-anchor="middle" pointer-events="none" font-family="sans-serif" dy="1.5625" font-size="25" fill="#FFFFFF"/><text text-anchor="middle" pointer-events="none" y="5" font-size="10px" fill="#FFFFFF" font-family="sans-serif"> Christop…</text></g><g class="node" transform="translate(36.193958409580084,183.5681041749155)"><circle class="outline" cx="0" cy="0" r="25" fill="#F79767" stroke="#f36924" stroke-width="2px"/><text text-anchor="middle" pointer-events="none" font-family="sans-serif" dy="1.5625" font-size="25" fill="#FFFFFF"/><text text-anchor="middle" pointer-events="none" font-family="sans-serif" dy="1.5625" font-size="25" fill="#FFFFFF"/><text text-anchor="middle" pointer-events="none" y="0" font-size="10px" fill="#FFFFFF" font-family="sans-serif"> Joe</text><text text-anchor="middle" pointer-events="none" y="10" font-size="10px" fill="#FFFFFF" font-family="sans-serif"> Johnston</text></g></g></svg>